HIERARCHY
ROOT root
{
	OFFSET 0.000000 0.000000 0.000000
	CHANNELS 6 Xposition Yposition Zposition Zrotation Yrotation Xrotation
	JOINT lhip
	{
		OFFSET 0.058581 -0.082280 -0.017664
		CHANNELS 3 Zrotation Yrotation Xrotation
		JOINT lknee
		{
			OFFSET 0.043451 -0.386469 0.008037
			CHANNELS 3 Zrotation Yrotation Xrotation
			JOINT lankle
			{
				OFFSET -0.014790 -0.426874 -0.037428
				CHANNELS 3 Zrotation Yrotation Xrotation
				JOINT ltoe
				{
					OFFSET 0.041054 -0.060286 0.122042
					CHANNELS 3 Zrotation Yrotation Xrotation
					End Site
					{
						OFFSET 0.000000 0.000000 0.000000
					}
				}
			}
		}
	}
	JOINT rhip
	{
		OFFSET -0.060310 -0.090513 -0.013543
		CHANNELS 3 Zrotation Yrotation Xrotation
		JOINT rknee
		{
			OFFSET -0.043257 -0.383688 -0.004843
			CHANNELS 3 Zrotation Yrotation Xrotation
			JOINT rankle
			{
				OFFSET 0.019056 -0.420046 -0.034562
				CHANNELS 3 Zrotation Yrotation Xrotation
				JOINT rtoe
				{
					OFFSET -0.034840 -0.062106 0.130323
					CHANNELS 3 Zrotation Yrotation Xrotation
					End Site
					{
						OFFSET 0.000000 0.000000 0.000000
					}
				}
			}
		}
	}
	JOINT lowerback
	{
		OFFSET 0.004439 0.124404 -0.038385
		CHANNELS 3 Zrotation Yrotation Xrotation
		JOINT upperback
		{
			OFFSET 0.004488 0.137956 0.026820
			CHANNELS 3 Zrotation Yrotation Xrotation
			JOINT chest
			{
				OFFSET -0.002265 0.056032 0.002855
				CHANNELS 3 Zrotation Yrotation Xrotation
				JOINT lowerneck
				{
					OFFSET -0.013390 0.211636 -0.033468
					CHANNELS 3 Zrotation Yrotation Xrotation
					JOINT upperneck
					{
						OFFSET 0.010113 0.088937 0.050410
						CHANNELS 3 Zrotation Yrotation Xrotation
						End Site
						{
							OFFSET 0.000000 0.000000 0.000000
						}
					}
				}
				JOINT lclavicle
				{
					OFFSET 0.071702 0.114000 -0.018898
					CHANNELS 3 Zrotation Yrotation Xrotation
					JOINT lshoulder
					{
						OFFSET 0.122921 0.045205 -0.019046
						CHANNELS 3 Zrotation Yrotation Xrotation
						JOINT lelbow
						{
							OFFSET 0.255332 -0.015649 -0.022946
							CHANNELS 3 Zrotation Yrotation Xrotation
							JOINT lwrist
							{
								OFFSET 0.265709 0.012698 -0.007375
								CHANNELS 3 Zrotation Yrotation Xrotation
								End Site
								{
									OFFSET 0.000000 0.000000 0.000000
								}
							}
						}
					}
				}
				JOINT rclavicle
				{
					OFFSET -0.082954 0.112472 -0.023707
					CHANNELS 3 Zrotation Yrotation Xrotation
					JOINT rshoulder
					{
						OFFSET -0.113228 0.046853 -0.008472
						CHANNELS 3 Zrotation Yrotation Xrotation
						JOINT relbow
						{
							OFFSET -0.260127 -0.014369 -0.031269
							CHANNELS 3 Zrotation Yrotation Xrotation
							JOINT rwrist
							{
								OFFSET -0.269108 0.006794 -0.006027
								CHANNELS 3 Zrotation Yrotation Xrotation
								End Site
								{
									OFFSET 0.000000 0.000000 0.000000
								}
							}
						}
					}
				}
			}
		}
	}
}
MOTION
Frames: 16
Frame Time: 0.033333
1.610835 0.708935 0.907052 -25.580602 -4.012269 77.906845 5.374121 -0.762749 -15.484845 -4.640419 8.817766 71.571358 1.804644 18.677251 -27.913289 0.000000 -0.000000 0.000000 -11.653085 -6.115760 -27.827182 -6.601181 -17.389053 64.880461 -1.694940 -16.237358 -25.442041 0.000000 -0.000000 0.000000 9.627312 -5.969119 35.015224 3.802918 -3.612820 14.946486 2.858896 0.621465 7.788664 -1.453178 -8.044699 44.850381 15.724044 5.332457 -30.982042 -8.668681 -12.546458 8.605907 -71.463080 -17.290037 7.342992 40.036401 -58.015682 -19.532245 -12.188824 -12.571090 -3.149756 -8.430327 18.360547 3.076884 46.800628 13.389751 -10.971637 -45.998728 70.520324 -24.457517 13.800772 9.672494 -3.324243 
1.598501 0.696047 0.906178 -25.530186 -4.953548 77.120234 3.327342 -1.484118 -19.802756 -4.987748 10.169649 70.346914 2.426167 17.913231 -27.514253 0.000000 -0.000000 0.000000 -12.079305 -6.181400 -26.335139 -6.722112 -16.107321 65.938712 -0.914584 -16.381781 -26.877635 0.000000 -0.000000 0.000000 10.811420 -4.804614 35.880427 4.608058 -3.432893 14.563091 3.871846 1.046106 7.767208 -0.615932 -8.638913 45.127650 15.830274 5.404367 -30.811582 -8.606130 -12.423921 8.080976 -70.837255 -16.815173 6.810297 38.843234 -58.146962 -18.740316 -13.705327 -12.670703 -2.936519 -8.249530 18.969903 3.170538 45.735395 13.325161 -11.080904 -44.403370 69.133348 -23.642216 14.056100 9.542309 -2.433302 
1.587515 0.681647 0.908110 -25.799031 -5.696791 76.223365 1.359152 -2.469982 -22.921267 -6.173930 10.640912 66.451492 2.916888 16.888132 -26.982967 0.000000 -0.000000 0.000000 -12.318639 -5.810881 -24.258270 -6.774409 -14.975491 66.178936 -0.013360 -16.510395 -27.909260 0.000000 -0.000000 0.000000 11.774783 -4.145729 36.893531 5.045216 -3.408268 13.560643 4.646593 1.390375 7.836462 0.271525 -8.890430 45.325098 15.837674 5.080851 -30.376889 -8.294403 -12.007997 7.660222 -70.493399 -16.026096 6.140473 38.377724 -57.972590 -18.659682 -14.610262 -12.784201 -2.894979 -7.962901 19.621008 3.339960 45.504614 13.538935 -10.605764 -42.782163 68.325964 -22.201955 14.608341 9.454294 -1.543195 
1.577877 0.666701 0.912545 -26.793171 -6.122985 75.829521 -0.131821 -3.248470 -25.365440 -8.010918 9.471697 60.955646 3.215046 15.490483 -26.441133 0.000000 -0.000000 0.000000 -11.889654 -5.269625 -22.491766 -6.915153 -13.563504 65.510116 0.664678 -16.506690 -28.570936 0.000000 -0.000000 0.000000 12.380317 -3.542903 37.340902 5.434633 -3.376773 12.763549 5.141209 1.710420 7.856164 0.935450 -9.307892 44.731340 15.974610 5.145159 -29.862781 -7.907388 -11.183656 7.163132 -70.094240 -15.112815 5.589835 38.347536 -58.088339 -18.890207 -14.593129 -12.674414 -2.786941 -7.516252 19.925350 3.473113 45.568342 13.944746 -9.728070 -40.968401 68.415312 -20.345995 14.760024 9.572935 -1.213512 
1.569542 0.651052 0.919564 -28.440543 -6.408163 76.082528 -1.195190 -4.297931 -26.976116 -9.182140 6.787657 54.487309 3.542657 14.364294 -25.714696 0.000000 -0.000000 0.000000 -11.320127 -4.644547 -21.089060 -6.673938 -12.122414 64.139895 1.349979 -16.277352 -28.721971 0.000000 -0.000000 0.000000 12.533238 -2.683022 37.131994 5.851095 -3.151055 11.936898 5.854474 1.714137 7.730664 1.965029 -9.784121 43.697173 16.075497 4.887131 -29.055850 -7.872664 -10.425441 6.703895 -69.444655 -14.034533 5.167581 38.106723 -58.264731 -18.816281 -14.593096 -12.891203 -2.842167 -7.303133 19.781781 3.266956 46.339983 13.998390 -8.345363 -39.272210 68.941158 -18.446498 14.823574 9.906220 -1.636172 
1.560787 0.633738 0.929298 -30.965601 -6.035450 76.452801 -0.878563 -5.341479 -27.013340 -10.670184 2.443834 47.750156 3.036085 12.432554 -24.691425 0.000000 -0.000000 0.000000 -10.074917 -3.820912 -19.144258 -6.165912 -10.994475 61.641071 1.829878 -15.951408 -28.603750 0.000000 -0.000000 0.000000 12.130669 -2.009242 36.770090 6.487304 -3.039318 11.315453 6.512744 1.622628 7.845034 2.379623 -10.563138 42.794149 16.339462 4.860625 -29.040528 -7.537600 -9.359614 6.530924 -68.944328 -13.094297 4.778142 38.073553 -58.825261 -18.665515 -14.297587 -13.013574 -3.176193 -7.176208 19.430573 2.866218 47.361947 14.494537 -6.976611 -37.101497 69.792680 -15.530271 14.619126 10.287642 -2.307037 
1.552818 0.615014 0.941066 -34.793208 -5.476919 77.107439 0.485826 -6.187948 -25.846944 -12.036403 -1.914493 42.264961 2.191722 10.861249 -23.058388 0.000000 -0.000000 0.000000 -8.807538 -2.626510 -17.311747 -5.199800 -9.776482 58.600807 2.154972 -15.132262 -28.049627 0.000000 -0.000000 0.000000 11.204172 -1.439391 36.266394 6.797682 -3.025225 11.071612 6.839392 1.319450 7.664113 3.355965 -11.123457 41.615360 16.445847 4.372405 -28.331378 -7.054711 -7.804651 6.267886 -68.259929 -11.897265 4.563374 38.152011 -59.422495 -18.253222 -13.833705 -13.446621 -3.776632 -6.836247 18.991054 2.509908 48.761374 15.437881 -5.047829 -35.037280 70.512729 -12.711666 13.928329 10.640512 -3.548157 
1.545254 0.594937 0.953370 -39.665100 -4.628560 78.493858 2.402993 -6.591188 -24.180664 -12.200807 -5.189217 38.581542 0.686760 8.492318 -18.489152 0.000000 -0.000000 0.000000 -7.715631 -1.446473 -16.274225 -3.853554 -8.655246 55.405404 2.156089 -13.437551 -26.837565 0.000000 -0.000000 0.000000 9.921070 -0.944165 34.931042 6.922971 -3.126852 10.993437 7.001768 0.739213 7.350360 4.028654 -11.663938 40.969178 16.571734 3.651846 -27.961128 -6.747324 -6.231509 6.236294 -67.342706 -10.558625 4.198268 38.881244 -59.871449 -18.486625 -13.743501 -13.623436 -4.219219 -6.457466 18.216569 2.340413 50.690416 16.615951 -3.055690 -33.668378 71.323835 -10.624525 13.684688 10.755947 -4.107716 
1.537094 0.574084 0.965118 -45.501354 -3.066137 80.053758 4.731389 -5.883514 -21.172938 -11.136092 -6.562073 35.304048 0.469687 8.130045 -15.825444 0.000000 -0.000000 0.000000 -6.153957 -0.069593 -15.467593 -2.329235 -7.616471 51.927805 2.236297 -11.216430 -25.233282 0.000000 -0.000000 0.000000 8.194498 -0.765749 32.948114 7.199235 -3.470536 11.671576 6.980114 -0.115145 6.814085 5.001101 -11.890307 40.065757 16.217432 2.532347 -27.245874 -6.254748 -4.454407 6.359834 -66.619671 -9.202394 3.400149 40.755149 -60.201552 -20.308310 -14.410589 -13.507003 -4.249506 -5.839341 17.376575 1.949291 52.426175 18.323284 -0.847397 -31.514606 71.790471 -8.023296 14.809602 10.652402 -4.746574 
1.528058 0.554427 0.975631 -52.277489 -1.098865 81.826720 7.071645 -2.803026 -19.260575 -9.307231 -4.233424 33.984006 1.773273 9.256942 -16.924577 0.000000 -0.000000 0.000000 -4.239847 1.497366 -15.371230 -0.892327 -6.660708 48.580576 2.533240 -9.330368 -23.562035 0.000000 -0.000000 0.000000 5.755304 -1.251220 31.013765 7.222876 -4.076412 11.308263 6.614670 -0.784945 7.280457 5.598273 -12.178405 39.217402 16.452693 1.798535 -26.867278 -6.024331 -2.284594 6.534975 -64.833502 -7.605238 1.788980 42.211011 -60.722084 -21.612526 -14.715821 -13.434647 -4.880661 -5.113932 15.990681 1.378538 55.073164 20.996441 1.138926 -26.034206 71.964923 -1.489240 14.417770 10.573321 -4.820309 
1.519398 0.538081 0.984633 -58.813421 0.862902 83.180011 9.709071 -0.604583 -17.884784 -8.096483 -1.852131 33.213456 2.044817 10.369278 -16.146059 0.000000 -0.000000 0.000000 -2.688499 2.706891 -15.049087 0.623469 -6.156522 45.060608 2.602592 -7.623072 -21.905111 0.000000 -0.000000 0.000000 2.945458 -2.061634 29.506563 7.009708 -5.331747 10.752018 6.157765 -1.587246 7.606697 6.115808 -12.357252 38.476415 16.719732 1.369970 -26.695340 -5.303710 -0.435047 6.887133 -62.752673 -6.252046 0.010007 43.703252 -60.314349 -23.803174 -14.053967 -13.072594 -5.508064 -4.485635 15.050773 1.474618 57.964227 23.515932 2.998065 -22.646689 72.005291 2.366880 13.601594 10.299557 -5.376454 
1.510607 0.522476 0.990366 -65.560859 2.550299 83.991565 11.877501 1.237155 -15.883926 -7.767390 -0.715157 32.746602 2.142800 12.219304 -17.421725 0.000000 -0.000000 0.000000 -1.699736 3.447381 -14.789546 2.499556 -5.257811 42.472781 2.658062 -6.078019 -20.803665 0.000000 -0.000000 0.000000 0.206676 -2.653166 27.526815 6.630559 -6.766307 10.522706 5.599092 -2.798531 7.538849 5.607313 -12.496659 38.679780 16.416552 0.441823 -25.854799 -4.387994 0.492287 7.793782 -60.422881 -4.998056 -1.757624 45.185289 -58.968077 -25.990386 -13.021089 -13.030275 -6.234389 -4.513020 14.918619 1.679625 60.665205 25.086473 5.089551 -21.392763 71.660804 4.461628 12.097431 10.298242 -7.137077 
1.501692 0.507798 0.992541 -72.674454 4.028204 84.774684 13.732480 3.156049 -14.096959 -6.968551 1.766979 32.786991 2.512547 13.661485 -19.111579 0.000000 -0.000000 0.000000 -0.987623 4.579344 -15.539401 3.934530 -4.272799 41.473979 2.984400 -4.440454 -19.857326 0.000000 -0.000000 0.000000 -2.335711 -3.182799 25.005680 6.123485 -7.566471 10.152756 5.169140 -3.384240 7.150629 4.584742 -12.497642 38.865005 16.224262 -0.483744 -24.680667 -3.148701 0.998849 8.579546 -58.503044 -5.240357 -3.059112 44.333739 -56.444453 -25.238321 -12.906866 -12.709970 -6.272506 -4.822140 13.745531 2.282516 62.554136 26.059457 6.101547 -17.841013 71.681073 8.924748 11.284623 10.619805 -8.957458 
1.494954 0.496261 0.992003 -79.223217 5.314685 84.778137 15.231482 4.716067 -12.300935 -5.934971 4.749806 33.576239 2.917970 15.020050 -20.910774 0.000000 -0.000000 0.000000 -0.086352 6.364844 -16.577012 4.517859 -3.577924 42.134612 3.499648 -3.562269 -19.311087 0.000000 -0.000000 0.000000 -4.450176 -4.137963 24.078703 4.959098 -8.338789 9.393384 4.549285 -4.884958 7.075996 4.476324 -10.492400 37.328981 15.801886 -0.691384 -24.079637 -2.274946 1.147692 8.540899 -56.021578 -3.317755 -5.803676 45.978169 -55.785655 -28.349976 -13.294981 -12.311699 -5.846610 -4.901788 13.907632 2.144553 63.448013 27.024157 6.293411 -14.191006 71.921761 12.046428 11.625819 10.802764 -9.281722 
1.489838 0.484898 0.989476 -83.283911 6.329865 84.205889 15.768205 5.433338 -10.935579 -4.999914 6.048213 34.874575 3.206597 16.729711 -22.603073 0.000000 -0.000000 0.000000 0.432708 7.109657 -16.418584 5.279733 -3.023802 42.153841 3.574292 -3.683430 -19.434256 0.000000 -0.000000 0.000000 -5.785077 -5.024528 24.670239 4.437728 -9.085037 7.715163 3.822163 -5.254555 7.314621 4.468673 -9.829331 35.310449 15.911400 -0.729606 -23.111492 -0.844235 0.662946 8.664820 -53.426556 -5.641616 -6.005158 45.559216 -53.962810 -28.240061 -13.376760 -12.426772 -6.270913 -5.234608 12.163198 1.678548 64.029058 26.391063 6.120021 -13.610278 72.764644 12.515057 11.211843 11.027548 -10.548623 
1.486102 0.474357 0.985791 -85.574319 7.042452 83.806469 16.053270 5.988948 -10.352421 -4.468444 6.894808 36.257021 3.357345 17.562510 -23.919838 0.000000 -0.000000 0.000000 0.475486 7.051308 -16.007150 5.979410 -2.344091 41.909264 3.323524 -3.210133 -19.922141 0.000000 -0.000000 0.000000 -6.410730 -5.231037 25.139037 4.115836 -9.868906 7.635430 3.642780 -5.824586 7.063145 4.269016 -8.314853 33.908122 16.136994 -0.314138 -23.703925 -0.023452 -1.681558 8.829608 -51.045950 -8.465135 -6.703357 46.121685 -52.953498 -28.585811 -13.956722 -12.767403 -6.157115 -5.845866 11.412967 1.291695 63.829446 24.225735 4.495433 -18.649175 74.278952 7.824009 11.539610 11.292555 -12.008475 
